HIERARCHY
ROOT root
{
	OFFSET 0.000000 0.000000 0.000000
	CHANNELS 6 Xposition Yposition Zposition Zrotation Yrotation Xrotation
	JOINT lhip
	{
		OFFSET 0.058581 -0.082280 -0.017664
		CHANNELS 3 Zrotation Yrotation Xrotation
		JOINT lknee
		{
			OFFSET 0.043451 -0.386469 0.008037
			CHANNELS 3 Zrotation Yrotation Xrotation
			JOINT lankle
			{
				OFFSET -0.014790 -0.426874 -0.037428
				CHANNELS 3 Zrotation Yrotation Xrotation
				JOINT ltoe
				{
					OFFSET 0.041054 -0.060286 0.122042
					CHANNELS 3 Zrotation Yrotation Xrotation
					End Site
					{
						OFFSET 0.000000 0.000000 0.000000
					}
				}
			}
		}
	}
	JOINT rhip
	{
		OFFSET -0.060310 -0.090513 -0.013543
		CHANNELS 3 Zrotation Yrotation Xrotation
		JOINT rknee
		{
			OFFSET -0.043257 -0.383688 -0.004843
			CHANNELS 3 Zrotation Yrotation Xrotation
			JOINT rankle
			{
				OFFSET 0.019056 -0.420046 -0.034562
				CHANNELS 3 Zrotation Yrotation Xrotation
				JOINT rtoe
				{
					OFFSET -0.034840 -0.062106 0.130323
					CHANNELS 3 Zrotation Yrotation Xrotation
					End Site
					{
						OFFSET 0.000000 0.000000 0.000000
					}
				}
			}
		}
	}
	JOINT lowerback
	{
		OFFSET 0.004439 0.124404 -0.038385
		CHANNELS 3 Zrotation Yrotation Xrotation
		JOINT upperback
		{
			OFFSET 0.004488 0.137956 0.026820
			CHANNELS 3 Zrotation Yrotation Xrotation
			JOINT chest
			{
				OFFSET -0.002265 0.056032 0.002855
				CHANNELS 3 Zrotation Yrotation Xrotation
				JOINT lowerneck
				{
					OFFSET -0.013390 0.211636 -0.033468
					CHANNELS 3 Zrotation Yrotation Xrotation
					JOINT upperneck
					{
						OFFSET 0.010113 0.088937 0.050410
						CHANNELS 3 Zrotation Yrotation Xrotation
						End Site
						{
							OFFSET 0.000000 0.000000 0.000000
						}
					}
				}
				JOINT lclavicle
				{
					OFFSET 0.071702 0.114000 -0.018898
					CHANNELS 3 Zrotation Yrotation Xrotation
					JOINT lshoulder
					{
						OFFSET 0.122921 0.045205 -0.019046
						CHANNELS 3 Zrotation Yrotation Xrotation
						JOINT lelbow
						{
							OFFSET 0.255332 -0.015649 -0.022946
							CHANNELS 3 Zrotation Yrotation Xrotation
							JOINT lwrist
							{
								OFFSET 0.265709 0.012698 -0.007375
								CHANNELS 3 Zrotation Yrotation Xrotation
								End Site
								{
									OFFSET 0.000000 0.000000 0.000000
								}
							}
						}
					}
				}
				JOINT rclavicle
				{
					OFFSET -0.082954 0.112472 -0.023707
					CHANNELS 3 Zrotation Yrotation Xrotation
					JOINT rshoulder
					{
						OFFSET -0.113228 0.046853 -0.008472
						CHANNELS 3 Zrotation Yrotation Xrotation
						JOINT relbow
						{
							OFFSET -0.260127 -0.014369 -0.031269
							CHANNELS 3 Zrotation Yrotation Xrotation
							JOINT rwrist
							{
								OFFSET -0.269108 0.006794 -0.006027
								CHANNELS 3 Zrotation Yrotation Xrotation
								End Site
								{
									OFFSET 0.000000 0.000000 0.000000
								}
							}
						}
					}
				}
			}
		}
	}
}
MOTION
Frames: 17
Frame Time: 0.033333
0.817468 0.679089 0.964262 -86.947791 -0.235447 85.953886 1.590905 -6.590767 -17.688640 -8.723527 -4.633538 35.952939 5.934199 19.551450 -20.245870 0.000000 -0.000000 0.000000 2.027952 0.680720 -14.795540 2.391431 -0.706094 32.333398 -2.903599 -17.050096 -18.738988 0.000000 -0.000000 0.000000 -2.620807 2.972907 12.832107 -0.383954 -2.798180 1.172583 -0.751568 1.459108 0.781726 0.998194 -5.434435 -14.825089 3.568365 -3.429083 -2.560870 -24.833372 -9.182308 -1.608969 -56.542768 -10.955169 18.781325 5.863457 -28.451207 2.727608 3.560930 -7.560307 5.124113 24.078577 15.019209 1.271402 56.869119 6.590026 15.767526 -2.768224 35.354772 12.019845 -14.500558 6.880256 1.715166 
0.812445 0.677543 0.975767 -88.032990 -0.317118 86.376612 1.006614 -5.984632 -14.680708 -7.191413 -5.291800 30.445016 6.048260 18.982868 -18.195112 0.000000 -0.000000 0.000000 2.315955 0.821350 -12.343453 1.738460 0.209664 27.427802 -2.252609 -16.253392 -16.480810 0.000000 -0.000000 0.000000 -2.625447 3.069074 10.809328 -0.560954 -2.565426 1.660915 -1.022696 1.680285 0.641966 0.856122 -5.070936 -13.832900 3.425397 -3.407334 -1.332110 -25.052372 -8.617176 -2.123218 -56.418541 -10.336866 19.079598 5.942536 -27.891703 1.557253 3.784540 -8.187504 4.317983 24.429839 14.632334 1.224619 57.260112 6.273082 16.465994 -2.472697 35.887785 11.117080 -14.113173 7.696913 1.201950 
0.807264 0.675825 0.986821 -88.915626 -0.500729 87.092017 0.298208 -5.235070 -11.592894 -5.593924 -6.204105 24.117885 5.650852 18.581308 -15.927771 0.000000 -0.000000 0.000000 2.448592 0.766085 -9.915357 0.951042 1.078657 21.907656 -1.549939 -15.439442 -13.993938 0.000000 -0.000000 0.000000 -2.929243 3.190425 8.280837 -0.474129 -2.389874 2.527358 -1.245137 1.723884 0.178078 0.591507 -5.013692 -12.257262 3.717041 -2.909283 -0.518548 -25.500238 -7.737425 -2.352128 -56.045980 -9.872091 19.460192 5.597083 -26.806265 1.118014 4.499357 -8.327959 3.975788 24.791071 13.468851 0.925617 57.759545 6.054166 17.303845 -1.672864 35.316419 10.706586 -14.005686 8.221524 0.921980 
0.801179 0.673792 0.996296 -89.917445 -0.797246 87.846332 -0.589503 -4.353527 -7.916951 -3.450811 -6.582754 16.638264 4.983857 17.679565 -12.704039 0.000000 -0.000000 0.000000 2.523473 0.807271 -7.380580 -0.274388 1.735279 16.223438 -0.549246 -14.540739 -11.378895 0.000000 -0.000000 0.000000 -3.195705 3.038372 5.733729 -0.519587 -2.150636 3.499357 -1.488003 1.892160 -0.742218 0.314439 -4.734354 -10.108381 3.836253 -2.564376 0.124676 -25.898433 -6.594128 -2.429986 -55.533489 -9.078262 19.901579 5.150679 -25.599836 0.951125 3.945682 -8.526212 3.971911 25.135973 12.324197 1.251179 58.407887 5.622125 18.357650 -1.433375 34.418015 10.356124 -13.337084 8.132981 1.191949 
0.797543 0.671543 1.002510 -89.955636 -0.879350 88.843930 -1.448688 -4.115868 -5.435218 -1.193569 -7.058805 10.432545 4.399697 17.007865 -10.057031 0.000000 -0.000000 0.000000 2.699285 0.639164 -5.741456 -1.368078 1.778588 11.464420 0.049410 -14.311085 -9.315258 0.000000 -0.000000 0.000000 -3.201759 2.734305 3.776232 -0.414327 -2.555165 3.792688 -1.581266 1.790600 -1.651122 -0.243994 -4.680156 -8.330877 4.275448 -1.948037 0.514316 -25.912364 -5.781861 -1.959594 -55.325309 -8.392282 19.958540 4.680247 -24.547079 1.229227 2.423778 -8.465961 3.867215 25.001416 11.062903 1.475161 58.947771 4.962240 18.704888 -1.186832 33.956416 10.597793 -11.479076 8.247264 2.139274 
0.795294 0.669723 1.003943 -90.016648 -0.948007 89.561124 -2.184729 -4.106524 -3.752757 0.409803 -7.609736 6.144340 4.229474 17.067233 -8.578224 0.000000 -0.000000 0.000000 2.942916 0.802344 -4.849896 -2.317921 1.670010 8.585350 0.210405 -14.503527 -8.409165 0.000000 -0.000000 0.000000 -3.225616 2.350552 2.412144 -0.286769 -2.765398 4.115517 -1.564555 1.787327 -2.112433 -0.691782 -4.689110 -7.505920 4.661165 -1.406007 0.302436 -26.075552 -5.375775 -1.819692 -54.645217 -7.827695 20.027319 3.900755 -24.086022 1.806562 -0.070194 -8.048981 4.351843 24.966770 10.195520 1.445856 58.659361 3.892767 18.803597 -1.115576 34.224723 10.990241 -8.802661 7.739633 3.138822 
0.792608 0.668301 1.001631 -90.010086 -0.901140 89.473087 -2.420417 -3.596294 -2.041527 1.160886 -8.119875 3.430062 4.108318 16.959635 -7.861499 0.000000 -0.000000 0.000000 3.158807 0.682651 -3.595344 -2.842813 1.867143 6.753596 -0.039585 -14.783125 -7.879032 0.000000 -0.000000 0.000000 -3.175722 2.083202 2.073504 -0.037170 -2.984351 4.718262 -1.396710 1.661928 -2.386369 -1.096081 -4.688317 -7.610465 4.776266 -0.919670 -0.183083 -26.933760 -5.887808 -1.293783 -53.183482 -7.354808 19.725748 3.195655 -23.783089 2.309543 -1.040712 -8.193020 4.923293 25.439833 9.804418 1.326693 57.378244 2.928783 17.999311 -0.895714 34.784880 10.426490 -6.979904 7.434269 3.489425 
0.792053 0.667198 0.998621 -89.814346 -0.828076 89.202326 -2.312092 -3.075943 -1.345523 1.174157 -8.616933 2.527792 3.882474 16.778407 -7.386230 0.000000 -0.000000 0.000000 3.172318 0.421522 -3.054437 -2.885815 2.030976 6.272726 -0.075724 -15.207546 -7.873212 0.000000 -0.000000 0.000000 -3.039879 1.778997 2.926688 0.069865 -3.094073 4.196911 -1.182806 1.583061 -2.119295 -1.388414 -4.577419 -8.330698 4.991977 -0.350842 -0.341141 -28.114633 -6.785857 -0.820798 -51.359048 -7.216359 19.498538 2.140307 -22.455954 3.578047 -0.117877 -8.910901 5.261800 26.306754 9.732857 1.344479 55.841745 2.477618 16.908369 -0.414384 33.738157 9.659301 -7.028736 7.532330 3.211626 
0.792216 0.666492 0.998013 -89.391168 -0.744329 89.045904 -2.159944 -2.940655 -1.672423 0.897418 -9.016718 3.292632 3.547862 16.920208 -7.756623 0.000000 -0.000000 0.000000 3.309552 0.340609 -2.837100 -3.041749 2.295149 6.239202 0.092919 -15.787572 -7.899114 0.000000 -0.000000 0.000000 -2.928363 1.734558 3.532554 0.155507 -3.138349 3.998987 -1.005029 1.448046 -2.124178 -1.463240 -4.631252 -8.586770 5.208282 -0.322346 -0.650961 -28.989339 -7.872272 -0.209467 -50.248179 -7.809637 19.332203 1.134425 -19.123433 5.019988 2.682714 -10.264024 6.438882 26.582498 10.024554 1.693650 55.575386 1.842636 16.015051 -0.572432 30.821472 9.326210 -10.339261 8.688266 3.355342 
0.791406 0.665597 0.999135 -89.218657 -0.742978 89.014968 -2.200646 -2.953391 -2.009829 0.708960 -9.029188 4.094251 3.493410 16.852793 -7.909641 0.000000 -0.000000 0.000000 3.197312 -0.044357 -2.479308 -2.958239 2.516934 5.718147 0.161579 -15.822230 -7.673587 0.000000 -0.000000 0.000000 -2.661892 2.052464 3.099465 0.004796 -3.197027 4.560630 -1.125783 1.532990 -2.214848 -1.110623 -4.589202 -8.497034 5.191499 -0.907531 -0.613415 -28.767762 -8.792982 0.072077 -50.545146 -8.353828 19.529914 1.219462 -15.632259 6.449897 1.892101 -9.695642 8.724648 26.202404 10.539885 1.883072 56.531446 0.780773 15.660390 -1.806104 27.792051 8.847961 -11.354131 8.327704 4.570198 
0.790529 0.665092 0.999730 -89.091809 -0.871200 88.873933 -2.355240 -3.135666 -1.954970 0.497461 -8.980352 4.414576 3.733054 17.128397 -7.723488 0.000000 -0.000000 0.000000 2.961178 -0.142004 -1.748450 -3.005960 2.526183 4.819886 0.099803 -15.941410 -7.119219 0.000000 -0.000000 0.000000 -2.495713 2.198937 3.047626 -0.107914 -3.022998 4.830676 -1.259372 1.654107 -2.431977 -0.767149 -4.836389 -8.701678 4.810727 -1.361101 0.112147 -28.192805 -8.869058 0.220392 -51.551044 -8.553881 19.885238 2.197203 -14.489319 7.845428 -1.415002 -6.980653 11.139245 25.601291 10.258333 1.943721 57.400697 -0.248324 15.824097 -2.673936 26.559757 9.571023 -8.996059 5.905763 6.305163 
0.789411 0.664642 0.999598 -88.711919 -0.936421 88.935117 -2.303652 -3.230748 -2.119713 0.199580 -9.066334 4.700843 3.903376 17.009922 -7.879378 0.000000 -0.000000 0.000000 2.770953 -0.446562 -1.356892 -2.970086 2.416496 4.132502 -0.064126 -15.958843 -6.465286 0.000000 -0.000000 0.000000 -2.438350 2.407503 2.509436 -0.056028 -3.112027 5.359077 -1.362775 1.687359 -2.535198 -0.444387 -4.966579 -8.803233 4.450724 -1.581857 0.669963 -28.133057 -8.236009 0.024015 -51.742206 -8.530742 19.822894 2.526065 -15.266845 7.743439 -6.679999 -4.045056 12.818261 25.544006 9.665149 1.882706 57.281886 -1.090058 16.269343 -3.138645 26.293396 11.053047 -3.566057 3.480172 8.388139 
0.788841 0.664159 0.999029 -88.714255 -1.021615 88.832140 -2.455930 -3.297579 -1.836462 0.256250 -9.138386 4.479660 3.970015 17.177717 -7.841780 0.000000 -0.000000 0.000000 2.678794 -0.400513 -1.173223 -3.065024 2.467586 4.095264 -0.209972 -16.010518 -6.197926 0.000000 -0.000000 0.000000 -2.295082 2.370794 2.623901 -0.072785 -2.949083 5.277854 -1.400888 1.724287 -2.525017 -0.566539 -5.478481 -8.701477 4.287565 -1.473740 0.662243 -28.781976 -7.346023 -0.149057 -50.905095 -7.940862 19.637059 1.695768 -17.156431 6.702592 -7.176507 -4.233666 12.091920 25.823966 9.068940 1.785013 56.271142 -1.440797 16.712841 -1.811635 26.041380 12.110654 -1.389085 2.991531 8.219252 
0.788871 0.663437 0.998510 -88.629488 -1.132649 88.804526 -2.748810 -3.251332 -1.653181 0.443939 -9.454821 4.155210 3.881163 17.342764 -7.738607 0.000000 -0.000000 0.000000 2.557480 -0.232590 -1.328576 -3.131673 2.338297 4.469976 -0.208821 -16.079307 -6.414609 0.000000 -0.000000 0.000000 -2.180397 2.200635 2.857782 -0.117584 -2.801831 4.946091 -1.409260 1.786470 -2.346040 -0.944443 -5.946196 -8.333570 4.499727 -1.270788 -0.132900 -29.624836 -6.780859 -0.129614 -49.962555 -7.485528 19.334838 0.512070 -18.824604 5.483727 -3.148952 -7.375457 10.323467 26.214240 8.697813 1.720427 55.545338 -1.961866 16.438464 -0.949222 26.127537 12.248704 -3.520788 4.770586 7.898072 
0.789488 0.663082 0.998077 -88.593824 -1.124812 88.871302 -2.753728 -3.235200 -1.756537 0.426107 -9.420258 4.080405 3.889326 17.205667 -7.766947 0.000000 -0.000000 0.000000 2.465494 -0.337716 -1.711088 -2.955585 2.254242 4.932592 -0.331662 -15.880264 -6.530253 0.000000 -0.000000 0.000000 -1.946184 2.143999 2.893669 -0.145042 -2.802994 4.853013 -1.450832 1.806075 -2.244277 -0.973090 -5.944064 -8.479584 4.335872 -1.299528 -0.392059 -29.719020 -6.549920 0.056647 -50.205216 -7.036230 19.060986 0.648634 -19.920393 4.119121 -1.885512 -8.963073 8.284050 26.164224 8.497143 1.651992 55.874168 -2.208759 16.023999 -1.347529 26.344116 11.600645 -4.417479 5.153278 7.580405 
0.789269 0.662683 0.997934 -88.545126 -1.197852 88.744652 -2.814166 -3.096470 -1.651609 0.338106 -9.449074 4.160543 3.755641 17.005411 -7.813447 0.000000 -0.000000 0.000000 2.314759 -0.443657 -1.417256 -2.920222 2.193509 4.650422 -0.263628 -15.705066 -6.560690 0.000000 -0.000000 0.000000 -1.844663 2.087390 2.984501 -0.116898 -2.807990 4.730816 -1.495700 1.823346 -2.098930 -1.109320 -5.750181 -8.319153 4.256432 -1.237590 -0.422479 -29.545855 -6.063068 0.074702 -50.922659 -7.037482 19.176874 0.819270 -20.046945 4.141235 0.043257 -9.379135 7.670601 26.169703 8.071056 1.733269 56.257442 -1.865367 15.690334 -1.728617 26.642043 10.569402 -7.065537 5.857682 7.413976 
0.789519 0.662339 0.997997 -88.409921 -1.242905 88.687657 -2.796697 -3.126373 -1.888330 0.149883 -9.447520 4.694342 3.679720 16.901798 -8.156814 0.000000 -0.000000 0.000000 2.377093 -0.491564 -1.431732 -3.165634 2.234884 4.794408 -0.224647 -15.754703 -6.723616 0.000000 -0.000000 0.000000 -1.819742 2.088699 3.080379 -0.044131 -2.873052 4.542467 -1.457987 1.777653 -2.040685 -1.235158 -5.793101 -8.364501 4.123587 -1.226201 -0.102073 -29.488924 -6.072840 0.122818 -51.571067 -6.921657 19.412708 1.201252 -19.432488 4.610384 0.767186 -9.182441 7.757769 26.159792 8.047868 1.730403 56.547404 -1.683315 15.584634 -1.953813 26.986314 9.814980 -8.430677 6.173631 6.799018 
